{
    "asset" : {
        "generator" : "Khronos glTF Blender I/O v1.2.75",
        "version" : "2.0"
    },
    "scene" : 0,
    "scenes" : [
        {
            "name" : "Scene",
            "nodes" : [
                0,
                1,
                2
            ]
        }
    ],
    "nodes" : [
        {
            "mesh" : 0,
            "name" : "Hull",
            "rotation" : [
                0,
                1,
                0,
                -6.397578431460715e-07
            ],
            "translation" : [
                0,
                0.8189559578895569,
                0
            ]
        },
        {
            "name" : "Lamp",
            "rotation" : [
                0.16907575726509094,
                0.7558803558349609,
                -0.27217137813568115,
                0.570947527885437
            ],
            "translation" : [
                4.076245307922363,
                5.903861999511719,
                -1.0054539442062378
            ]
        },
        {
            "name" : "Camera",
            "rotation" : [
                0.48170700669288635,
                0.3342514932155609,
                -0.21292176842689514,
                0.7816000580787659
            ],
            "translation" : [
                8.822196960449219,
                6.474450588226318,
                10.079178810119629
            ]
        }
    ],
    "materials" : [
        {
            "doubleSided" : true,
            "name" : "Material_1.001",
            "pbrMetallicRoughness" : {}
        },
        {
            "doubleSided" : true,
            "name" : "Material_1.003",
            "pbrMetallicRoughness" : {}
        },
        {
            "doubleSided" : true,
            "name" : "Material_1.002",
            "pbrMetallicRoughness" : {}
        },
        {
            "doubleSided" : true,
            "name" : "Material_1",
            "pbrMetallicRoughness" : {}
        }
    ],
    "meshes" : [
        {
            "name" : "Object_1.001",
            "primitives" : [
                {
                    "attributes" : {
                        "POSITION" : 0,
                        "NORMAL" : 1,
                        "TEXCOORD_0" : 2
                    },
                    "indices" : 3,
                    "material" : 0
                },
                {
                    "attributes" : {
                        "POSITION" : 4,
                        "NORMAL" : 5,
                        "TEXCOORD_0" : 6
                    },
                    "indices" : 7,
                    "material" : 1
                },
                {
                    "attributes" : {
                        "POSITION" : 8,
                        "NORMAL" : 9,
                        "TEXCOORD_0" : 10
                    },
                    "indices" : 11,
                    "material" : 2
                },
                {
                    "attributes" : {
                        "POSITION" : 12,
                        "NORMAL" : 13,
                        "TEXCOORD_0" : 14
                    },
                    "indices" : 15,
                    "material" : 3
                }
            ]
        }
    ],
    "accessors" : [
        {
            "bufferView" : 0,
            "componentType" : 5126,
            "count" : 16496,
            "max" : [
                1.6550911664962769,
                0.7966836094856262,
                3.4232354164123535
            ],
            "min" : [
                -1.6546025276184082,
                -0.5531981587409973,
                -3.36092472076416
            ],
            "type" : "VEC3"
        },
        {
            "bufferView" : 1,
            "componentType" : 5126,
            "count" : 16496,
            "type" : "VEC3"
        },
        {
            "bufferView" : 2,
            "componentType" : 5126,
            "count" : 16496,
            "type" : "VEC2"
        },
        {
            "bufferView" : 3,
            "componentType" : 5123,
            "count" : 16929,
            "type" : "SCALAR"
        },
        {
            "bufferView" : 4,
            "componentType" : 5126,
            "count" : 2562,
            "max" : [
                0.5035892128944397,
                1.3379638195037842,
                -1.971146821975708
            ],
            "min" : [
                -0.41538912057876587,
                0.7454380989074707,
                -7.060405254364014
            ],
            "type" : "VEC3"
        },
        {
            "bufferView" : 5,
            "componentType" : 5126,
            "count" : 2562,
            "type" : "VEC3"
        },
        {
            "bufferView" : 6,
            "componentType" : 5126,
            "count" : 2562,
            "type" : "VEC2"
        },
        {
            "bufferView" : 7,
            "componentType" : 5123,
            "count" : 2562,
            "type" : "SCALAR"
        },
        {
            "bufferView" : 8,
            "componentType" : 5126,
            "count" : 9288,
            "max" : [
                1.2355157136917114,
                2.1377742290496826,
                1.1448450088500977
            ],
            "min" : [
                -1.2400766611099243,
                0.6517418622970581,
                -2.2357430458068848
            ],
            "type" : "VEC3"
        },
        {
            "bufferView" : 9,
            "componentType" : 5126,
            "count" : 9288,
            "type" : "VEC3"
        },
        {
            "bufferView" : 10,
            "componentType" : 5126,
            "count" : 9288,
            "type" : "VEC2"
        },
        {
            "bufferView" : 11,
            "componentType" : 5123,
            "count" : 9414,
            "type" : "SCALAR"
        },
        {
            "bufferView" : 12,
            "componentType" : 5126,
            "count" : 11584,
            "max" : [
                1.587705373764038,
                0.20906001329421997,
                3.0940911769866943
            ],
            "min" : [
                -1.587705373764038,
                -0.8260378837585449,
                -3.144012451171875
            ],
            "type" : "VEC3"
        },
        {
            "bufferView" : 13,
            "componentType" : 5126,
            "count" : 11584,
            "type" : "VEC3"
        },
        {
            "bufferView" : 14,
            "componentType" : 5126,
            "count" : 11584,
            "type" : "VEC2"
        },
        {
            "bufferView" : 15,
            "componentType" : 5123,
            "count" : 11646,
            "type" : "SCALAR"
        }
    ],
    "bufferViews" : [
        {
            "buffer" : 0,
            "byteLength" : 197952,
            "byteOffset" : 0
        },
        {
            "buffer" : 0,
            "byteLength" : 197952,
            "byteOffset" : 197952
        },
        {
            "buffer" : 0,
            "byteLength" : 131968,
            "byteOffset" : 395904
        },
        {
            "buffer" : 0,
            "byteLength" : 33858,
            "byteOffset" : 527872
        },
        {
            "buffer" : 0,
            "byteLength" : 30744,
            "byteOffset" : 561732
        },
        {
            "buffer" : 0,
            "byteLength" : 30744,
            "byteOffset" : 592476
        },
        {
            "buffer" : 0,
            "byteLength" : 20496,
            "byteOffset" : 623220
        },
        {
            "buffer" : 0,
            "byteLength" : 5124,
            "byteOffset" : 643716
        },
        {
            "buffer" : 0,
            "byteLength" : 111456,
            "byteOffset" : 648840
        },
        {
            "buffer" : 0,
            "byteLength" : 111456,
            "byteOffset" : 760296
        },
        {
            "buffer" : 0,
            "byteLength" : 74304,
            "byteOffset" : 871752
        },
        {
            "buffer" : 0,
            "byteLength" : 18828,
            "byteOffset" : 946056
        },
        {
            "buffer" : 0,
            "byteLength" : 139008,
            "byteOffset" : 964884
        },
        {
            "buffer" : 0,
            "byteLength" : 139008,
            "byteOffset" : 1103892
        },
        {
            "buffer" : 0,
            "byteLength" : 92672,
            "byteOffset" : 1242900
        },
        {
            "buffer" : 0,
            "byteLength" : 23292,
            "byteOffset" : 1335572
        }
    ],
    "buffers" : [
        {
            "byteLength" : 1358864,
            "uri" : "data:application/octet-stream;base64,"
        }
    ]
}
